<svg xmlns="http://www.w3.org/2000/svg" xmlns:xlink="http://www.w3.org/1999/xlink" version="1.0" x="0px" y="0px" viewBox="0 0 100 125" enable-background="new 0 0 100 100" xml:space="preserve"><g><path d="M70.140358,95.095108H29.8596439c-0.4570885,0-0.827446,0.3706207-0.827446,0.827446   c0,0.4568176,0.3703575,0.827446,0.827446,0.827446H70.140358c0.4570847,0,0.827446-0.3706284,0.827446-0.827446   C70.967804,95.4657288,70.5974426,95.095108,70.140358,95.095108z"/><path d="M39.5633011,94.075882c0.4570923,0,0.8274498-0.3706284,0.8274498-0.8274536V80.316864h19.2184982v12.9315643   c0,0.4568253,0.3703575,0.8274536,0.8274498,0.8274536c0.4570885,0,0.827446-0.3706284,0.827446-0.8274536V79.489418   c0-0.4568253-0.3703575-0.827446-0.827446-0.827446H39.5633011c-0.4570885,0-0.827446,0.3706207-0.827446,0.827446v13.7590103   C38.7358551,93.7052536,39.1062126,94.075882,39.5633011,94.075882z"/><path d="M39.5633011,77.3286819h20.8733978c0.4570885,0,0.827446-0.3706284,0.827446-0.8274536   c0-0.4568176-0.3703575-0.827446-0.827446-0.827446H39.5633011c-0.4570885,0-0.827446,0.3706284-0.827446,0.827446   C38.7358551,76.9580536,39.1062126,77.3286819,39.5633011,77.3286819z"/><path d="M56.4128571,73.6972809c0.4570885,0,0.827446-0.3706284,0.827446-0.827446V48.5748672   c0-0.4568214-0.3703575-0.8274498-0.827446-0.8274498h-2.4855766V35.4736099c0-2.1655884-1.7618294-3.9271469-3.9271469-3.9271469   s-3.9271431,1.7615585-3.9271431,3.9271469v12.2738075h-2.4855766c-0.4570885,0-0.827446,0.3706284-0.827446,0.8274498v24.2949677   c0,0.4568176,0.3703575,0.827446,0.827446,0.827446s0.8274498-0.3706284,0.8274498-0.827446V49.4023132h2.4855728   c0.4570923,0,0.8274498-0.3706284,0.8274498-0.827446V35.4736099c0-1.2530251,1.0192261-2.2722511,2.2722473-2.2722511   c1.2530251,0,2.2722511,1.0192261,2.2722511,2.2722511v13.1012573c0,0.4568176,0.3703575,0.827446,0.827446,0.827446h2.4855766   v23.4675217C55.5854073,73.3266525,55.9557648,73.6972809,56.4128571,73.6972809z"/><path d="M43.5758324,46.5294113c0.4570885,0,0.827446-0.3706284,0.827446-0.8274498V34.703804   c0-3.0862312,2.5106277-5.5965881,5.5968552-5.5965881c3.0859604,0,5.5965881,2.5103569,5.5965881,5.5965881v10.9981575   c0,0.4568214,0.3703575,0.8274498,0.827446,0.8274498s0.8274498-0.3706284,0.8274498-0.8274498V34.703804   c0-1.5024109-0.4596481-2.8993683-1.2452812-4.058321c0.1040382-0.1383457,0.1678734-0.3084755,0.1678734-0.4947987   c0-1.4766178-0.522274-2.8327694-1.3901215-3.8963051c0.1143379-0.1419144,0.1855812-0.3198872,0.1855812-0.5162106   c0-1.4267902-0.6077919-2.7113266-1.5739555-3.6185036c0.1179771-0.1430244,0.1916428-0.3238277,0.1916428-0.5235844   c0-1.6929417-1.1799583-3.1124249-2.7597733-3.4875641V6.5964336c0-0.4568205-0.3703575-0.8274479-0.8274498-0.8274479   c-0.4570885,0-0.827446,0.3706274-0.827446,0.8274479v11.5120831c-1.5798836,0.3751068-2.7600441,1.7946224-2.7600441,3.4875641   c0,0.1997566,0.0736656,0.3805599,0.1916428,0.5235844c-0.9661636,0.907177-1.5739555,2.1917133-1.5739555,3.6185036   c0,0.1963234,0.0712433,0.3743305,0.1855812,0.5162449c-0.8678474,1.0635681-1.3901215,2.4196529-1.3901215,3.8962708   c0,0.1863575,0.0639038,0.3564529,0.167942,0.494833c-0.7857018,1.1589508-1.2453499,2.5558758-1.2453499,4.0582867v10.9981575   C42.7483826,46.158783,43.1187439,46.5294113,43.5758324,46.5294113z M50.0001335,27.4523201   c-1.6294403,0-3.1299324,0.5467834-4.3420792,1.4575291c0.5409927-1.8898029,2.280735-3.2783451,4.3420792-3.2783451   c2.0610771,0,3.8006859,1.3884411,4.3418121,3.2781773C53.1298637,27.9990368,51.6294403,27.4523201,50.0001335,27.4523201z    M50.0001335,22.4235287c1.5303879,0,2.8180923,1.0437374,3.1978111,2.4558125   c-0.9341812-0.5688705-2.0264015-0.9027328-3.1978111-0.9027328c-1.1715431,0-2.2638321,0.3338947-3.1980095,0.9027653   C47.1819115,23.4672985,48.4697456,22.4235287,50.0001335,22.4235287z M50.0001335,19.6632137   c0.9067726,0,1.6640549,0.6303158,1.8713226,1.4741268c-0.5781631-0.2360516-1.2092552-0.3687077-1.8713226-0.3687077   c-0.6622009,0-1.2932892,0.1326561-1.8715897,0.368742C48.3358116,20.2935638,49.0933647,19.6632137,50.0001335,19.6632137z"/></g><text x="0" y="115" fill="#000000" font-size="5px" font-weight="bold" font-family="'Helvetica Neue', Helvetica, Arial-Unicode, Arial, Sans-serif">Created by Alexander Skowalsky</text><text x="0" y="120" fill="#000000" font-size="5px" font-weight="bold" font-family="'Helvetica Neue', Helvetica, Arial-Unicode, Arial, Sans-serif">from the Noun Project</text></svg>